<?xml version="1.0" encoding="UTF-8" standalone="no"?>
<svg
   clip-rule="evenodd"
   fill-rule="evenodd"
   height="50mm"
   image-rendering="optimizeQuality"
   shape-rendering="geometricPrecision"
   text-rendering="geometricPrecision"
   viewBox="0 0 50 50"
   width="50mm"
   version="1.1"
   id="svg1"
   sodipodi:docname="bP_short.svg"
   inkscape:version="1.4.2 (f4327f4, 2025-05-13)"
   xmlns:inkscape="http://www.inkscape.org/namespaces/inkscape"
   xmlns:sodipodi="http://sodipodi.sourceforge.net/DTD/sodipodi-0.dtd"
   xmlns="http://www.w3.org/2000/svg"
   xmlns:svg="http://www.w3.org/2000/svg">
  <defs
     id="defs1" />
  <sodipodi:namedview
     id="namedview1"
     pagecolor="#ffffff"
     bordercolor="#000000"
     borderopacity="0.25"
     inkscape:showpageshadow="2"
     inkscape:pageopacity="0.0"
     inkscape:pagecheckerboard="0"
     inkscape:deskcolor="#d1d1d1"
     inkscape:document-units="mm"
     inkscape:zoom="4.270375"
     inkscape:cx="94.488189"
     inkscape:cy="96.829904"
     inkscape:window-width="1825"
     inkscape:window-height="1046"
     inkscape:window-x="-11"
     inkscape:window-y="-11"
     inkscape:window-maximized="1"
     inkscape:current-layer="svg1" />
  <path
     d="M 25,46.448 H 11.606 c -0.658745,-1.599443 -0.99518,-3.313221 -0.99,-5.043 0,-2.975 0.863,-5.644 2.598,-8.018 1.736,-2.365 3.971,-4.054 6.697,-5.067 -1.158016,-0.517874 -2.148758,-1.348283 -2.861,-2.398 -0.737,-1.071 -1.1,-2.283 -1.1,-3.634 0,-1.69 0.575,-3.156 1.735,-4.392 1.151,-1.244 2.574,-1.961 4.267,-2.15 -1.346,-0.981 -2.015,-2.283 -2.015,-3.89 0,-1.351 0.491,-2.513 1.482,-3.477 0.982,-0.964 2.176,-1.442 3.581,-1.442 1.389,0 0,39.511 0,39.511 z"
     fill="#1f1a17"
     id="path1"
     sodipodi:nodetypes="ccccccsccscsc" />
</svg>
